<?xml version="1.0" encoding="UTF-8"?>
<svg version="1.1" xmlns="http://www.w3.org/2000/svg" width="250" height="220">
<path d="M0 0 C10.55326381 -0.06963992 21.10647257 -0.12288226 31.65991974 -0.15543652 C36.56079754 -0.17106426 41.46151763 -0.19224959 46.36230469 -0.22631836 C51.0955713 -0.25901508 55.82868662 -0.27687475 60.5620575 -0.28463173 C62.36409383 -0.29015676 64.16612228 -0.30094572 65.96809387 -0.31719017 C68.5003929 -0.33910179 71.03207392 -0.34196124 73.56445312 -0.34057617 C74.67145065 -0.35675491 74.67145065 -0.35675491 75.80081177 -0.3732605 C81.12069523 -0.34196167 85.10390818 0.91523708 90 3 C90 3.66 90 4.32 90 5 C92.31 5 94.62 5 97 5 C97 5.66 97 6.32 97 7 C98.65 7.33 100.3 7.66 102 8 C102 8.66 102 9.32 102 10 C103.65 10 105.3 10 107 10 C107 10.66 107 11.32 107 12 C107.99 12.33 108.98 12.66 110 13 C110 13.66 110 14.32 110 15 C110.66 15 111.32 15 112 15 C112 15.66 112 16.32 112 17 C112.99 17 113.98 17 115 17 C117.6875 19.3125 117.6875 19.3125 120 22 C120 22.99 120 23.98 120 25 C120.66 25 121.32 25 122 25 C122 25.66 122 26.32 122 27 C122.99 27.33 123.98 27.66 125 28 C126.64820195 30.60242414 127 31.86248779 127 35 C127.99 35.33 128.98 35.66 130 36 C130 37.32 130 38.64 130 40 C130.66 40 131.32 40 132 40 C132.309375 40.969375 132.61875 41.93875 132.9375 42.9375 C133.69523342 45.84065792 133.69523342 45.84065792 135 47 C135.04080783 48.99958364 135.04254356 51.00045254 135 53 C135.66 53 136.32 53 137 53 C137 57.95 137 62.9 137 68 C137.66 68 138.32 68 139 68 C139 85.49 139 102.98 139 121 C138.34 121 137.68 121 137 121 C137.03480469 121.845625 137.06960937 122.69125 137.10546875 123.5625 C137.27115864 130.50569557 136.96654088 135.69610062 134 142 C133.34 142 132.68 142 132 142 C132 144.31 132 146.62 132 149 C131.34 149 130.68 149 130 149 C130 149.99 130 150.98 130 152 C129.01 152 128.02 152 127 152 C127 153.65 127 155.3 127 157 C126.34 157 125.68 157 125 157 C125 157.99 125 158.98 125 160 C124.01 160 123.02 160 122 160 C121.855625 160.78375 121.71125 161.5675 121.5625 162.375 C121 165 121 165 120 167 C119.01 167 118.02 167 117 167 C117 167.99 117 168.98 117 170 C116.34 170 115.68 170 115 170 C115 170.66 115 171.32 115 172 C114.01 172 113.02 172 112 172 C111.67 172.99 111.34 173.98 111 175 C109.68 175 108.36 175 107 175 C107 175.66 107 176.32 107 177 C106.34 177 105.68 177 105 177 C105 177.99 105 178.98 105 180 C103.35 180 101.7 180 100 180 C100 180.66 100 181.32 100 182 C99.01 182 98.02 182 97 182 C96.67 182.99 96.34 183.98 96 185 C94.02 185 92.04 185 90 185 C90 185.66 90 186.32 90 187 C87.36 187 84.72 187 82 187 C82 187.66 82 188.32 82 189 C69.73429991 195.13285004 48.62345775 192.19318946 35.125 192.1875 C34.18921112 192.18831573 33.25342224 192.18913147 32.28927612 192.18997192 C29.61204237 192.18970795 26.93501226 192.18091661 24.2578125 192.16796875 C23.02964058 192.16617111 23.02964058 192.16617111 21.7766571 192.16433716 C16.11666297 192.11666297 16.11666297 192.11666297 15 191 C12.98405418 190.76572222 10.961526 190.58663876 8.9375 190.4375 C7.83277344 190.35371094 6.72804687 190.26992187 5.58984375 190.18359375 C4.73519531 190.12300781 3.88054687 190.06242188 3 190 C2.67 189.01 2.34 188.02 2 187 C1.41992188 187.03480469 0.83984375 187.06960937 0.2421875 187.10546875 C-5.009134 187.28744524 -8.39511219 186.83377711 -13 184 C-13 183.34 -13 182.68 -13 182 C-14.65 182 -16.3 182 -18 182 C-18 181.34 -18 180.68 -18 180 C-19.32 180 -20.64 180 -22 180 C-23.75 178.625 -23.75 178.625 -25 177 C-25 176.34 -25 175.68 -25 175 C-25.99 175 -26.98 175 -28 175 C-28 174.01 -28 173.02 -28 172 C-28.8971875 171.814375 -28.8971875 171.814375 -29.8125 171.625 C-32 171 -32 171 -35 169 C-35 167.68 -35 166.36 -35 165 C-35.99 165 -36.98 165 -38 165 C-38 164.01 -38 163.02 -38 162 C-38.66 162 -39.32 162 -40 162 C-40 161.34 -40 160.68 -40 160 C-40.99 159.67 -41.98 159.34 -43 159 C-43 157.68 -43 156.36 -43 155 C-43.66 155 -44.32 155 -45 155 C-45 154.01 -45 153.02 -45 152 C-45.66 152 -46.32 152 -47 152 C-49.68219822 146.63560356 -50.3152595 142.98993047 -50 137 C-50.99 136.67 -51.98 136.34 -53 136 C-53.06058594 135.01257813 -53.12117188 134.02515625 -53.18359375 133.0078125 C-53.26738281 131.72648438 -53.35117187 130.44515625 -53.4375 129.125 C-53.55931641 127.21074219 -53.55931641 127.21074219 -53.68359375 125.2578125 C-53.79206027 122.11699848 -53.79206027 122.11699848 -55 120 C-55.09039906 118.3351936 -55.11755257 116.66676579 -55.11352539 114.99951172 C-55.11344986 113.95858368 -55.11337433 112.91765564 -55.11329651 111.84518433 C-55.10813522 110.71807037 -55.10297394 109.59095642 -55.09765625 108.4296875 C-55.0962413 107.27832306 -55.09482635 106.12695862 -55.09336853 104.94070435 C-55.08775716 101.25211014 -55.0752027 97.56357595 -55.0625 93.875 C-55.05748647 91.37890712 -55.05292331 88.8828133 -55.04882812 86.38671875 C-55.03778403 80.25779191 -55.0210348 74.12890024 -55 68 C-54.34 68 -53.68 68 -53 68 C-53 63.05 -53 58.1 -53 53 C-51.515 52.505 -51.515 52.505 -50 52 C-50 49.03 -50 46.06 -50 43 C-49.34 43 -48.68 43 -48 43 C-47.67 41.35 -47.34 39.7 -47 38 C-46.34 38 -45.68 38 -45 38 C-45 36.35 -45 34.7 -45 33 C-44.34 33 -43.68 33 -43 33 C-42.67 31.35 -42.34 29.7 -42 28 C-41.34 28 -40.68 28 -40 28 C-40 27.01 -40 26.02 -40 25 C-39.34 25 -38.68 25 -38 25 C-37.67 24.01 -37.34 23.02 -37 22 C-36.34 22 -35.68 22 -35 22 C-35 21.34 -35 20.68 -35 20 C-30.61538462 17 -30.61538462 17 -28 17 C-28 16.34 -28 15.68 -28 15 C-27.01 15 -26.02 15 -25 15 C-25 14.01 -25 13.02 -25 12 C-22.35261084 10.5393715 -21.10551666 10 -18 10 C-17.67 9.01 -17.34 8.02 -17 7 C-15.68 7 -14.36 7 -13 7 C-13 6.34 -13 5.68 -13 5 C-11.02 5 -9.04 5 -7 5 C-7 4.34 -7 3.68 -7 3 C-3.535 2.505 -3.535 2.505 0 2 C0 1.34 0 0.68 0 0 Z " fill="#618BF5" transform="translate(84,14)"/>
<path d="M0 0 C3 1 3 1 4.1875 2.875 C5 5 5 5 5 8 C5.99 8.33 6.98 8.66 8 9 C8 10.32 8 11.64 8 13 C8.66 13 9.32 13 10 13 C10.309375 13.969375 10.61875 14.93875 10.9375 15.9375 C11.69523342 18.84065792 11.69523342 18.84065792 13 20 C13.04080783 21.99958364 13.04254356 24.00045254 13 26 C13.66 26 14.32 26 15 26 C15 30.95 15 35.9 15 41 C15.66 41 16.32 41 17 41 C17 58.49 17 75.98 17 94 C16.34 94 15.68 94 15 94 C15.03480469 94.845625 15.06960937 95.69125 15.10546875 96.5625 C15.27115864 103.50569557 14.96654088 108.69610062 12 115 C11.34 115 10.68 115 10 115 C10 117.31 10 119.62 10 122 C9.34 122 8.68 122 8 122 C8 122.99 8 123.98 8 125 C7.01 125 6.02 125 5 125 C5 126.65 5 128.3 5 130 C4.34 130 3.68 130 3 130 C3 130.99 3 131.98 3 133 C2.01 133 1.02 133 0 133 C-0.144375 133.78375 -0.28875 134.5675 -0.4375 135.375 C-1 138 -1 138 -2 140 C-2.99 140 -3.98 140 -5 140 C-5 140.99 -5 141.98 -5 143 C-5.66 143 -6.32 143 -7 143 C-7 143.66 -7 144.32 -7 145 C-7.99 145 -8.98 145 -10 145 C-10.33 145.99 -10.66 146.98 -11 148 C-12.32 148 -13.64 148 -15 148 C-15 148.66 -15 149.32 -15 150 C-15.66 150 -16.32 150 -17 150 C-17 150.99 -17 151.98 -17 153 C-18.65 153 -20.3 153 -22 153 C-22 153.66 -22 154.32 -22 155 C-22.99 155 -23.98 155 -25 155 C-25.33 155.99 -25.66 156.98 -26 158 C-27.98 158 -29.96 158 -32 158 C-32 158.66 -32 159.32 -32 160 C-34.64 160 -37.28 160 -40 160 C-40 160.66 -40 161.32 -40 162 C-52.26570009 168.13285004 -73.37654225 165.19318946 -86.875 165.1875 C-87.81078888 165.18831573 -88.74657776 165.18913147 -89.71072388 165.18997192 C-92.38795763 165.18970795 -95.06498774 165.18091661 -97.7421875 165.16796875 C-98.56096878 165.16677032 -99.37975006 165.1655719 -100.2233429 165.16433716 C-105.88333703 165.11666297 -105.88333703 165.11666297 -107 164 C-109.01594582 163.76572222 -111.038474 163.58663876 -113.0625 163.4375 C-114.16722656 163.35371094 -115.27195313 163.26992187 -116.41015625 163.18359375 C-117.26480469 163.12300781 -118.11945313 163.06242188 -119 163 C-119.33 162.01 -119.66 161.02 -120 160 C-120.58007812 160.03480469 -121.16015625 160.06960937 -121.7578125 160.10546875 C-127.009134 160.28744524 -130.39511219 159.83377711 -135 157 C-135 156.34 -135 155.68 -135 155 C-136.65 155 -138.3 155 -140 155 C-140 154.34 -140 153.68 -140 153 C-141.32 153 -142.64 153 -144 153 C-145.75 151.625 -145.75 151.625 -147 150 C-147 149.34 -147 148.68 -147 148 C-147.99 148 -148.98 148 -150 148 C-150 147.01 -150 146.02 -150 145 C-150.99 145 -151.98 145 -153 145 C-153 144.34 -153 143.68 -153 143 C-151.68 142.67 -150.36 142.34 -149 142 C-149 142.99 -149 143.98 -149 145 C-148.34 145 -147.68 145 -147 145 C-147 145.66 -147 146.32 -147 147 C-146.01 147 -145.02 147 -144 147 C-144 147.99 -144 148.98 -144 150 C-143.29875 149.938125 -142.5975 149.87625 -141.875 149.8125 C-138.34739788 150.04256101 -136.06015649 151.29200568 -133 153 C-133 153.66 -133 154.32 -133 155 C-131.35 154.67 -129.7 154.34 -128 154 C-128 154.99 -128 155.98 -128 157 C-127.319375 156.835 -126.63875 156.67 -125.9375 156.5 C-121.93763809 155.81917244 -117.71583773 155.14208113 -114 157 C-114 157.66 -114 158.32 -114 159 C-113.3306543 158.92935333 -112.66130859 158.85870667 -111.97167969 158.78591919 C-105.37722551 158.1320372 -98.87421026 157.85253152 -92.25 157.8671875 C-90.78095215 157.86575241 -90.78095215 157.86575241 -89.28222656 157.86428833 C-87.22851496 157.8636132 -85.17480115 157.86542049 -83.12109375 157.86962891 C-80.00776296 157.87498664 -76.8945764 157.86966102 -73.78125 157.86328125 C-71.77083302 157.86394215 -69.76041613 157.86522356 -67.75 157.8671875 C-66.83508789 157.86516327 -65.92017578 157.86313904 -64.97753906 157.86105347 C-58.60598757 157.8837572 -52.33546531 158.33131787 -46 159 C-45.67 158.01 -45.34 157.02 -45 156 C-44.40832031 155.95101562 -43.81664062 155.90203125 -43.20703125 155.8515625 C-36.86879054 155.303973 -36.86879054 155.303973 -31 153 C-30.67 152.01 -30.34 151.02 -30 150 C-29.01 150 -28.02 150 -27 150 C-26.566875 149.38125 -26.13375 148.7625 -25.6875 148.125 C-23.47117598 145.33407346 -21.34930816 145.0466588 -18 144 C-16.97980427 143.0206121 -15.97850195 142.02104551 -15 141 C-14.22785156 140.74476563 -13.45570313 140.48953125 -12.66015625 140.2265625 C-9.29995477 138.6772185 -8.09249602 136.90405674 -6 133.875 C-5.31808594 132.89402344 -4.63617188 131.91304687 -3.93359375 130.90234375 C0.30242004 124.61143444 0.30242004 124.61143444 4 118 C4.66 118 5.32 118 6 118 C6 117.01 6 116.02 6 115 C6.99 114.34 7.98 113.68 9 113 C9.36362818 110.79274927 9.36362818 110.79274927 9.1875 108.375 C9.16042969 107.55773437 9.13335937 106.74046875 9.10546875 105.8984375 C9.07066406 105.27195312 9.03585938 104.64546875 9 104 C9.66 103.67 10.32 103.34 11 103 C10.99777939 102.22040924 10.99555878 101.44081848 10.99327087 100.63760376 C10.97314709 93.2532149 10.95796462 85.86883954 10.94818783 78.48443031 C10.94299236 74.68898972 10.93595607 70.89357198 10.92456055 67.09814453 C10.91361214 63.42823439 10.9076981 59.75834609 10.90512276 56.08842087 C10.90328988 54.69555696 10.89971123 53.30269411 10.89426994 51.90983963 C10.86540689 44.20790786 11.00903597 36.64441917 12 29 C11.01 28.67 10.02 28.34 9 28 C9.33 25.69 9.66 23.38 10 21 C9.01 21 8.02 21 7 21 C7 18.69 7 16.38 7 14 C6.01 14 5.02 14 4 14 C4 13.34 4 12.68 4 12 C3.34 12 2.68 12 2 12 C2.33 10.02 2.66 8.04 3 6 C2.01 6 1.02 6 0 6 C0 4.02 0 2.04 0 0 Z " fill="#4D9DDC" transform="translate(206,41)"/>
<path d="M0 0 C12.87 0 25.74 0 39 0 C39 3.63 39 7.26 39 11 C30.42 11.33 21.84 11.66 13 12 C12.67 17.28 12.34 22.56 12 28 C19.92 28 27.84 28 36 28 C36 30.64 36 33.28 36 36 C35 37 35 37 32.77514648 37.11352539 C31.81680908 37.10828857 30.85847168 37.10305176 29.87109375 37.09765625 C28.31938477 37.09282227 28.31938477 37.09282227 26.73632812 37.08789062 C25.64771484 37.07951172 24.55910156 37.07113281 23.4375 37.0625 C21.7987793 37.05573242 21.7987793 37.05573242 20.12695312 37.04882812 C17.41794568 37.0369984 14.7089662 37.01906231 12 37 C12 44.26 12 51.52 12 59 C8.04 59 4.08 59 0 59 C0 39.53 0 20.06 0 0 Z " fill="#020510" transform="translate(135,83)"/>
<path d="M0 0 C16.17 0 32.34 0 49 0 C49 3.63 49 7.26 49 11 C43.32745403 13.83627298 36.3420992 12 30 12 C30 27.51 30 43.02 30 59 C26.04 59 22.08 59 18 59 C18 43.49 18 27.98 18 12 C12.39 12 6.78 12 1 12 C0.67 11.67 0.34 11.34 0 11 C0 7.37 0 3.74 0 0 Z " fill="#000107" transform="translate(80,83)"/>
<path d="M0 0 C10.55326381 -0.06963992 21.10647257 -0.12288226 31.65991974 -0.15543652 C36.56079754 -0.17106426 41.46151763 -0.19224959 46.36230469 -0.22631836 C51.0955713 -0.25901508 55.82868662 -0.27687475 60.5620575 -0.28463173 C62.36409383 -0.29015676 64.16612228 -0.30094572 65.96809387 -0.31719017 C68.5003929 -0.33910179 71.03207392 -0.34196124 73.56445312 -0.34057617 C74.67145065 -0.35675491 74.67145065 -0.35675491 75.80081177 -0.3732605 C81.12069523 -0.34196167 85.10390818 0.91523708 90 3 C90 3.66 90 4.32 90 5 C92.31 5 94.62 5 97 5 C97 5.66 97 6.32 97 7 C98.65 7.33 100.3 7.66 102 8 C102 8.66 102 9.32 102 10 C103.65 10 105.3 10 107 10 C107 10.66 107 11.32 107 12 C107.99 12.33 108.98 12.66 110 13 C110 13.66 110 14.32 110 15 C110.66 15 111.32 15 112 15 C112 15.66 112 16.32 112 17 C112.99 17 113.98 17 115 17 C117.6875 19.3125 117.6875 19.3125 120 22 C120 22.99 120 23.98 120 25 C119.01 25 118.02 25 117 25 C117 24.34 117 23.68 117 23 C116.38125 22.855625 115.7625 22.71125 115.125 22.5625 C113 22 113 22 111 21 C111 20.01 111 19.02 111 18 C110.01 18 109.02 18 108 18 C108 17.34 108 16.68 108 16 C106.02 16.495 106.02 16.495 104 17 C103.67 16.01 103.34 15.02 103 14 C100.67108904 12.97299556 100.67108904 12.97299556 97.9375 12.3125 C97.01839844 12.06113281 96.09929687 11.80976563 95.15234375 11.55078125 C94.08693359 11.27814453 94.08693359 11.27814453 93 11 C93 10.34 93 9.68 93 9 C92.01 9.33 91.02 9.66 90 10 C87.7734375 9.0390625 87.7734375 9.0390625 85.375 7.625 C84.57835937 7.16351562 83.78171875 6.70203125 82.9609375 6.2265625 C81 5 81 5 80 4 C77.66722142 3.92438915 75.36557139 3.91361495 73.03344727 3.9465332 C71.94077042 3.95612564 71.94077042 3.95612564 70.82601929 3.96591187 C68.40605811 3.98878623 65.9862707 4.01936657 63.56640625 4.05078125 C61.89111003 4.0700004 60.21581194 4.08905661 58.54051208 4.10795593 C55.02394187 4.14900636 51.50745276 4.19424059 47.9909668 4.24194336 C43.47698767 4.30253095 38.96298104 4.34943666 34.44880772 4.39277363 C30.98726233 4.42807999 27.52587383 4.47232619 24.06446648 4.51912498 C22.39987825 4.54021921 20.73524629 4.55810687 19.07058907 4.5727787 C16.74547324 4.59427778 14.4208592 4.6281844 12.09594727 4.6652832 C11.40340347 4.66901443 10.71085968 4.67274567 9.99732971 4.67658997 C6.05716268 4.66370608 6.05716268 4.66370608 3 7 C1.4221875 7.433125 1.4221875 7.433125 -0.1875 7.875 C-4.23222501 9.06852541 -7.46167735 10.78511974 -11 13 C-11.87140625 13.52980469 -12.7428125 14.05960938 -13.640625 14.60546875 C-24.32118081 21.21515697 -34.85194442 29.15947216 -40 41 C-40.69639558 42.23596926 -41.4052664 43.46497378 -42.125 44.6875 C-44.26290901 48.46447258 -45.19723816 51.78550034 -46 56 C-46.52904994 58.77751219 -47.10378985 61.31136954 -48 64 C-49.485 64.495 -49.485 64.495 -51 65 C-51.99 65.99 -51.99 65.99 -53 67 C-53 62.38 -53 57.76 -53 53 C-51.515 52.505 -51.515 52.505 -50 52 C-50 49.03 -50 46.06 -50 43 C-49.34 43 -48.68 43 -48 43 C-47.67 41.35 -47.34 39.7 -47 38 C-46.34 38 -45.68 38 -45 38 C-45 36.35 -45 34.7 -45 33 C-44.34 33 -43.68 33 -43 33 C-42.67 31.35 -42.34 29.7 -42 28 C-41.34 28 -40.68 28 -40 28 C-40 27.01 -40 26.02 -40 25 C-39.34 25 -38.68 25 -38 25 C-37.67 24.01 -37.34 23.02 -37 22 C-36.34 22 -35.68 22 -35 22 C-35 21.34 -35 20.68 -35 20 C-30.61538462 17 -30.61538462 17 -28 17 C-28 16.34 -28 15.68 -28 15 C-27.01 15 -26.02 15 -25 15 C-25 14.01 -25 13.02 -25 12 C-22.35261084 10.5393715 -21.10551666 10 -18 10 C-17.67 9.01 -17.34 8.02 -17 7 C-15.68 7 -14.36 7 -13 7 C-13 6.34 -13 5.68 -13 5 C-11.02 5 -9.04 5 -7 5 C-7 4.34 -7 3.68 -7 3 C-3.535 2.505 -3.535 2.505 0 2 C0 1.34 0 0.68 0 0 Z " fill="#7367CA" transform="translate(84,14)"/>
<path d="M0 0 C0 4.62 0 9.24 0 14 C-8.25 14 -16.5 14 -25 14 C-25 18.29 -25 22.58 -25 27 C-22.63521484 26.98259766 -22.63521484 26.98259766 -20.22265625 26.96484375 C-18.16927201 26.95546757 -16.1158865 26.94636718 -14.0625 26.9375 C-13.02158203 26.92912109 -11.98066406 26.92074219 -10.90820312 26.91210938 C-9.91884766 26.90888672 -8.92949219 26.90566406 -7.91015625 26.90234375 C-6.53549194 26.89448853 -6.53549194 26.89448853 -5.13305664 26.88647461 C-3 27 -3 27 -2 28 C-1.90126184 29.99799572 -1.87028201 31.99957158 -1.875 34 C-1.87113281 35.6396875 -1.87113281 35.6396875 -1.8671875 37.3125 C-2 40 -2 40 -3 41 C-4.63472882 41.08700342 -6.27314055 41.10701063 -7.91015625 41.09765625 C-8.89951172 41.09443359 -9.88886719 41.09121094 -10.90820312 41.08789062 C-11.94912109 41.07951172 -12.99003906 41.07113281 -14.0625 41.0625 C-15.10728516 41.05798828 -16.15207031 41.05347656 -17.22851562 41.04882812 C-19.8190666 41.03699913 -22.40950559 41.02051689 -25 41 C-24.99476318 41.57032959 -24.98952637 42.14065918 -24.98413086 42.72827148 C-24.96341779 45.29800323 -24.9503581 47.86771747 -24.9375 50.4375 C-24.92912109 51.33533203 -24.92074219 52.23316406 -24.91210938 53.15820312 C-24.90888672 54.01220703 -24.90566406 54.86621094 -24.90234375 55.74609375 C-24.89710693 56.53685303 -24.89187012 57.3276123 -24.88647461 58.14233398 C-25 60 -25 60 -26 61 C-31.61 61 -37.22 61 -43 61 C-43 45.49 -43 29.98 -43 14 C-49.27 14 -55.54 14 -62 14 C-61.99476318 15.38823975 -61.98952637 16.77647949 -61.98413086 18.20678711 C-61.96608654 23.33731445 -61.95457008 28.46783897 -61.94506836 33.59838867 C-61.94002683 35.82267732 -61.93319377 38.04696263 -61.92456055 40.27124023 C-61.91248702 43.46078309 -61.90677004 46.65028229 -61.90234375 49.83984375 C-61.89718246 50.84087631 -61.89202118 51.84190887 -61.88670349 52.87327576 C-61.88662796 53.79415482 -61.88655243 54.71503387 -61.88647461 55.66381836 C-61.884254 56.47878281 -61.88203339 57.29374725 -61.87974548 58.13340759 C-62 60 -62 60 -63 61 C-67.95 61 -72.9 61 -78 61 C-78 45.49 -78 29.98 -78 14 C-83.61 14 -89.22 14 -95 14 C-96 13 -96 13 -96.1328125 10.3125 C-96.13023438 9.219375 -96.12765625 8.12625 -96.125 7 C-96.12757812 5.906875 -96.13015625 4.81375 -96.1328125 3.6875 C-96 1 -96 1 -95 0 C-92.09644249 -0.17517634 -89.21540372 -0.28513871 -86.30859375 -0.3515625 C-84.93956406 -0.38690346 -84.93956406 -0.38690346 -83.5428772 -0.42295837 C-80.50786992 -0.49740771 -77.47276899 -0.56216955 -74.4375 -0.625 C-73.40454803 -0.64779022 -72.37159607 -0.67058044 -71.30734253 -0.69406128 C-47.52321349 -1.19971695 -23.77500857 -0.6993116 0 0 Z M-95 1 C-95 4.63 -95 8.26 -95 12 C-94.67 12.33 -94.34 12.66 -94 13 C-88.39 13 -82.78 13 -77 13 C-77 28.51 -77 44.02 -77 60 C-73.04 60 -69.08 60 -65 60 C-65 44.49 -65 28.98 -65 13 C-59.39 13 -53.78 13 -48 13 C-47.34 12.67 -46.68 12.34 -46 12 C-46 8.37 -46 4.74 -46 1 C-62.17 1 -78.34 1 -95 1 Z M-40 1 C-40 20.47 -40 39.94 -40 60 C-36.04 60 -32.08 60 -28 60 C-28 52.74 -28 45.48 -28 38 C-26.35128906 38.01160156 -24.70257813 38.02320313 -23.00390625 38.03515625 C-20.85677196 38.04453238 -18.70963645 38.05363277 -16.5625 38.0625 C-15.47388672 38.07087891 -14.38527344 38.07925781 -13.26367188 38.08789062 C-11.71196289 38.09272461 -11.71196289 38.09272461 -10.12890625 38.09765625 C-9.17056885 38.10289307 -8.21223145 38.10812988 -7.22485352 38.11352539 C-5.02714661 38.2505313 -5.02714661 38.2505313 -4 37 C-4 34.36 -4 31.72 -4 29 C-11.92 29 -19.84 29 -28 29 C-27.67 23.72 -27.34 18.44 -27 13 C-18.42 12.67 -9.84 12.34 -1 12 C-1 8.37 -1 4.74 -1 1 C-13.87 1 -26.74 1 -40 1 Z " fill="#3B5493" transform="translate(175,82)"/>
<path d="M0 0 C8.46713383 -0.06971632 16.93414637 -0.12292046 25.40149689 -0.15543652 C29.33384895 -0.17104788 33.26600367 -0.19220249 37.19824219 -0.22631836 C40.99783754 -0.25907462 44.79724387 -0.27688703 48.5969696 -0.28463173 C50.04175285 -0.29014622 51.48652654 -0.30091432 52.93122864 -0.31719017 C60.50109826 -0.39902797 67.06747038 -0.36911613 74 3 C74 3.66 74 4.32 74 5 C76.31 5 78.62 5 81 5 C81 5.66 81 6.32 81 7 C82.65 7.33 84.3 7.66 86 8 C86 8.66 86 9.32 86 10 C87.65 10 89.3 10 91 10 C91 10.66 91 11.32 91 12 C91.99 12.33 92.98 12.66 94 13 C94 13.66 94 14.32 94 15 C94.66 15 95.32 15 96 15 C96 15.66 96 16.32 96 17 C96.99 17 97.98 17 99 17 C101.6875 19.3125 101.6875 19.3125 104 22 C104 22.99 104 23.98 104 25 C103.01 25 102.02 25 101 25 C101 24.34 101 23.68 101 23 C100.38125 22.855625 99.7625 22.71125 99.125 22.5625 C97 22 97 22 95 21 C95 20.01 95 19.02 95 18 C94.01 18 93.02 18 92 18 C92 17.34 92 16.68 92 16 C90.68 16.33 89.36 16.66 88 17 C87.505 15.515 87.505 15.515 87 14 C84.67108904 12.97299556 84.67108904 12.97299556 81.9375 12.3125 C81.01839844 12.06113281 80.09929687 11.80976563 79.15234375 11.55078125 C78.44207031 11.36902344 77.73179687 11.18726563 77 11 C77 10.34 77 9.68 77 9 C76.01 9.33 75.02 9.66 74 10 C71.7734375 9.0390625 71.7734375 9.0390625 69.375 7.625 C68.57835937 7.16351562 67.78171875 6.70203125 66.9609375 6.2265625 C65 5 65 5 64 4 C62.0056827 3.90594858 60.00800457 3.88256751 58.01147461 3.88647461 C56.08959572 3.88658791 56.08959572 3.88658791 54.12889099 3.88670349 C52.72004152 3.89181091 51.31119244 3.89702691 49.90234375 3.90234375 C48.46887766 3.90420798 47.03541093 3.90563186 45.60194397 3.90663147 C41.82240043 3.91045628 38.0428951 3.92028623 34.2633667 3.93133545 C30.40930702 3.94155037 26.55524118 3.94612926 22.70117188 3.95117188 C15.13409713 3.96190854 7.56705391 3.97898451 0 4 C-0.33 3.34 -0.66 2.68 -1 2 C-0.67 1.34 -0.34 0.68 0 0 Z " fill="#657CD1" transform="translate(100,14)"/>
<path d="M0 0 C0.99 0 1.98 0 3 0 C3 18.15 3 36.3 3 55 C3.66 55 4.32 55 5 55 C5.66 54.01 6.32 53.02 7 52 C8.77297261 53.77297261 8.33700956 56.40548044 8.5 58.8125 C8.77055038 63.03868006 8.77055038 63.03868006 9.55859375 67.18359375 C10.22173624 69.91245442 9.55505413 72.28640202 9 75 C9.66 75 10.32 75 11 75 C11.12375 75.639375 11.2475 76.27875 11.375 76.9375 C11.58125 77.618125 11.7875 78.29875 12 79 C12.66 79.33 13.32 79.66 14 80 C14.625 82.5625 14.625 82.5625 15 85 C15.66 85 16.32 85 17 85 C17.67408308 86.26691507 18.33900497 87.53870749 19 88.8125 C19.37125 89.52019531 19.7425 90.22789062 20.125 90.95703125 C21 93 21 93 21 96 C21.66 96 22.32 96 23 96 C23 97.98 23 99.96 23 102 C21.515 101.505 21.515 101.505 20 101 C20 99.68 20 98.36 20 97 C19.01 97 18.02 97 17 97 C17 96.01 17 95.02 17 94 C16.34 94 15.68 94 15 94 C15 93.34 15 92.68 15 92 C14.01 91.67 13.02 91.34 12 91 C12 89.68 12 88.36 12 87 C11.34 87 10.68 87 10 87 C10 86.01 10 85.02 10 84 C9.34 84 8.68 84 8 84 C5.31780178 78.63560356 4.6847405 74.98993047 5 69 C4.01 68.67 3.02 68.34 2 68 C1.93941406 67.01257813 1.87882812 66.02515625 1.81640625 65.0078125 C1.73261719 63.72648437 1.64882813 62.44515625 1.5625 61.125 C1.44068359 59.21074219 1.44068359 59.21074219 1.31640625 57.2578125 C1.20793973 54.11699848 1.20793973 54.11699848 0 52 C-0.09039906 50.3351936 -0.11755257 48.66676579 -0.11352539 46.99951172 C-0.11344986 45.95858368 -0.11337433 44.91765564 -0.11329651 43.84518433 C-0.10813522 42.71807037 -0.10297394 41.59095642 -0.09765625 40.4296875 C-0.0962413 39.27832306 -0.09482635 38.12695862 -0.09336853 36.94070435 C-0.08775716 33.25211014 -0.0752027 29.56357595 -0.0625 25.875 C-0.05748647 23.37890712 -0.05292331 20.8828133 -0.04882812 18.38671875 C-0.03778403 12.25779191 -0.0210348 6.12890024 0 0 Z " fill="#6564B9" transform="translate(29,82)"/>
<path d="M0 0 C3 1 3 1 4.1875 2.875 C5 5 5 5 5 8 C5.99 8.33 6.98 8.66 8 9 C8 10.32 8 11.64 8 13 C8.66 13 9.32 13 10 13 C10.309375 13.969375 10.61875 14.93875 10.9375 15.9375 C11.69523342 18.84065792 11.69523342 18.84065792 13 20 C13.04080783 21.99958364 13.04254356 24.00045254 13 26 C13.66 26 14.32 26 15 26 C15 30.95 15 35.9 15 41 C15.66 41 16.32 41 17 41 C17 58.49 17 75.98 17 94 C15.02 94.495 15.02 94.495 13 95 C11.72463461 88.15539196 11.87377512 81.35361619 11.90234375 74.41015625 C11.9037587 73.11049423 11.90517365 71.81083221 11.90663147 70.4717865 C11.91042666 67.03756747 11.92023092 63.60339158 11.93133545 60.16918945 C11.94161445 56.65641869 11.94614292 53.14364088 11.95117188 49.63085938 C11.96185624 42.75388867 11.97889612 35.87694641 12 29 C11.01 28.67 10.02 28.34 9 28 C9.33 25.69 9.66 23.38 10 21 C9.01 21 8.02 21 7 21 C7 18.69 7 16.38 7 14 C6.01 14 5.02 14 4 14 C4 13.34 4 12.68 4 12 C3.34 12 2.68 12 2 12 C2.33 10.02 2.66 8.04 3 6 C2.01 6 1.02 6 0 6 C0 4.02 0 2.04 0 0 Z " fill="#3F86BA" transform="translate(206,41)"/>
<path d="M0 0 C3.34717831 0.1512849 6.67153703 0.4046662 10.00976562 0.68359375 C13.58563849 0.95186601 16.56736293 1.04178287 20 0 C26.01480765 -0.43322735 31.34056231 -0.12228913 37 2 C37.66 2.66 38.32 3.32 39 4 C36.16037579 4.9465414 34.29593471 5.14994224 31.3449707 5.20532227 C30.40422195 5.22526749 29.46347321 5.24521271 28.49421692 5.26576233 C26.97534126 5.29083107 26.97534126 5.29083107 25.42578125 5.31640625 C23.86732735 5.3475779 23.86732735 5.3475779 22.27738953 5.37937927 C18.95582747 5.44480656 15.63418584 5.50372821 12.3125 5.5625 C10.0618407 5.60569169 7.81118948 5.64930619 5.56054688 5.69335938 C0.04044631 5.80048103 -5.47973437 5.90176789 -11 6 C-11 9.96 -11 13.92 -11 18 C-5.39 18.33 0.22 18.66 6 19 C6 34.51 6 50.02 6 66 C5.34 66 4.68 66 4 66 C2.8584378 63.7168756 2.84665628 62.36520695 2.79467773 59.82568359 C2.77473251 58.96494232 2.75478729 58.10420105 2.73423767 57.21737671 C2.71752518 56.28712677 2.70081268 55.35687683 2.68359375 54.3984375 C2.66281265 53.44683746 2.64203156 52.49523743 2.62062073 51.51480103 C2.55511867 48.46827568 2.4962372 45.42166257 2.4375 42.375 C2.39431541 40.31249084 2.35070114 38.24999063 2.30664062 36.1875 C2.1994366 31.12509046 2.09817098 26.06259245 2 21 C1.34773438 21.02320312 0.69546875 21.04640625 0.0234375 21.0703125 C-0.85054687 21.08835937 -1.72453125 21.10640625 -2.625 21.125 C-3.48351562 21.14820312 -4.34203125 21.17140625 -5.2265625 21.1953125 C-8 21 -8 21 -14 19 C-14 14.05 -14 9.1 -14 4 C-10.50424777 2.25212388 -8.99581693 1.72364198 -5.3125 1.4375 C-2.35818712 1.40493693 -2.35818712 1.40493693 0 0 Z " fill="#6779D4" transform="translate(91,77)"/>
<path d="M0 0 C16.17 0 32.34 0 49 0 C49 3.63 49 7.26 49 11 C45.93466836 12.53266582 42.73245728 12.10276471 39.375 12.0625 C38.66859375 12.05798828 37.9621875 12.05347656 37.234375 12.04882812 C35.48954725 12.03703875 33.744763 12.01910324 32 12 C32.33 11.34 32.66 10.68 33 10 C37.62 10 42.24 10 47 10 C47 7.36 47 4.72 47 2 C31.82 2 16.64 2 1 2 C1 4.31 1 6.62 1 9 C2.80597656 8.94779297 2.80597656 8.94779297 4.6484375 8.89453125 C6.22394442 8.8663972 7.79946638 8.83909663 9.375 8.8125 C10.1690625 8.78736328 10.963125 8.76222656 11.78125 8.73632812 C13.85586148 8.70995595 15.93100865 8.84513538 18 9 C20.08382862 12.12574293 20.25889959 12.90452555 20.31884766 16.47143555 C20.33871735 17.37214279 20.35858704 18.27285004 20.37905884 19.20085144 C20.39061005 20.16968765 20.40216125 21.13852386 20.4140625 22.13671875 C20.43342865 23.13129593 20.4527948 24.12587311 20.4727478 25.15058899 C20.53256159 28.3294719 20.57893639 31.50839098 20.625 34.6875 C20.6631781 36.84181273 20.70222973 38.99611017 20.7421875 41.15039062 C20.83826451 46.43345809 20.92330674 51.71661753 21 57 C23.64 57 26.28 57 29 57 C29 42.15 29 27.3 29 12 C29.33 12 29.66 12 30 12 C30 27.51 30 43.02 30 59 C26.04 59 22.08 59 18 59 C18 43.49 18 27.98 18 12 C12.39 12 6.78 12 1 12 C0.67 11.67 0.34 11.34 0 11 C0 7.37 0 3.74 0 0 Z " fill="#0E1744" transform="translate(80,83)"/>
<path d="M0 0 C0.99 0 1.98 0 3 0 C3 0.99 3 1.98 3 3 C2.34 3 1.68 3 1 3 C1.061875 3.763125 1.12375 4.52625 1.1875 5.3125 C1 8 1 8 -0.375 9.8125 C-2 11 -2 11 -4 11 C-3.87625 12.7325 -3.87625 12.7325 -3.75 14.5 C-3.7324623 19.44563259 -5.58345255 22.80191026 -8 27 C-9.66945556 30.00257393 -10.45583979 32.68253598 -11.0625 36.0625 C-11.5663152 38.8314017 -12.10737921 41.32213764 -13 44 C-14.485 44.495 -14.485 44.495 -16 45 C-16.66 45.66 -17.32 46.32 -18 47 C-18 42.38 -18 37.76 -18 33 C-16.515 32.505 -16.515 32.505 -15 32 C-15 29.03 -15 26.06 -15 23 C-14.34 23 -13.68 23 -13 23 C-12.67 21.35 -12.34 19.7 -12 18 C-11.34 18 -10.68 18 -10 18 C-10 16.35 -10 14.7 -10 13 C-9.34 13 -8.68 13 -8 13 C-7.67 11.35 -7.34 9.7 -7 8 C-6.34 8 -5.68 8 -5 8 C-5 7.01 -5 6.02 -5 5 C-4.34 5 -3.68 5 -3 5 C-2.67 4.01 -2.34 3.02 -2 2 C-1.34 2 -0.68 2 0 2 C0 1.34 0 0.68 0 0 Z " fill="#675EAE" transform="translate(49,34)"/>
<path d="M0 0 C0.97262787 0.00444122 1.94525574 0.00888245 2.94735718 0.01345825 C4.59884262 0.01368484 4.59884262 0.01368484 6.28369141 0.01391602 C7.4764267 0.02423859 8.66916199 0.03456116 9.89804077 0.04519653 C11.11599335 0.04802643 12.33394592 0.05085632 13.58880615 0.05377197 C17.4914621 0.06499647 21.3938913 0.09010531 25.29647827 0.11550903 C27.93709997 0.12553589 30.57772524 0.13466225 33.21835327 0.14285278 C39.70280607 0.16494322 46.18712598 0.19844311 52.67147827 0.24050903 C52.67147827 0.90050903 52.67147827 1.56050903 52.67147827 2.24050903 C44.43577485 7.73097798 30.093494 5.46048492 20.43441772 5.48074341 C17.58412021 5.49059495 14.73450237 5.52176667 11.8843689 5.55300903 C10.07252418 5.55952707 8.26067437 5.56478222 6.44882202 5.56863403 C5.59682724 5.58098083 4.74483246 5.59332764 3.86701965 5.60604858 C1.48764038 5.59695435 1.48764038 5.59695435 -2.32852173 5.24050903 C-2.98852173 4.25050903 -3.64852173 3.26050903 -4.32852173 2.24050903 C-2.32852173 0.24050903 -2.32852173 0.24050903 0 0 Z " fill="#3374D2" transform="translate(102.32852172851563,200.75949096679688)"/>
<path d="M0 0 C13.2 0 26.4 0 40 0 C40 4.62 40 9.24 40 14 C31.75 14 23.5 14 15 14 C15 18.29 15 22.58 15 27 C22.26 27 29.52 27 37 27 C37 30.96 37 34.92 37 39 C35.42347656 39.06058594 33.84695312 39.12117188 32.22265625 39.18359375 C30.16926057 39.26797987 28.11587569 39.35262883 26.0625 39.4375 C25.02158203 39.47681641 23.98066406 39.51613281 22.90820312 39.55664062 C21.91884766 39.59853516 20.92949219 39.64042969 19.91015625 39.68359375 C18.53549194 39.73858032 18.53549194 39.73858032 17.13305664 39.79467773 C15.0179272 39.77003864 15.0179272 39.77003864 14 41 C13.84379445 42.41327947 13.74943827 43.8335459 13.68359375 45.25390625 C13.64169922 46.10791016 13.59980469 46.96191406 13.55664062 47.84179688 C13.49766602 49.18854492 13.49766602 49.18854492 13.4375 50.5625 C13.39431641 51.46419922 13.35113281 52.36589844 13.30664062 53.29492188 C13.20021858 55.52978485 13.09820012 57.76476308 13 60 C12.67 60 12.34 60 12 60 C12 52.74 12 45.48 12 38 C19.59 37.67 27.18 37.34 35 37 C35.33 34.36 35.66 31.72 36 29 C28.08 29 20.16 29 12 29 C11.979375 26.380625 11.95875 23.76125 11.9375 21.0625 C11.928396 20.2362915 11.91929199 19.41008301 11.90991211 18.55883789 C11.90276055 16.70566241 11.9497148 14.85250692 12 13 C13 12 13 12 15.50024414 11.88647461 C16.58426514 11.89171143 17.66828613 11.89694824 18.78515625 11.90234375 C19.95498047 11.90556641 21.12480469 11.90878906 22.33007812 11.91210938 C23.56177734 11.92048828 24.79347656 11.92886719 26.0625 11.9375 C27.91584961 11.94426758 27.91584961 11.94426758 29.80664062 11.95117188 C32.87114117 11.96300392 35.93554721 11.97948827 39 12 C39 8.37 39 4.74 39 1 C26.13 1 13.26 1 0 1 C0 0.67 0 0.34 0 0 Z " fill="#39538A" transform="translate(135,82)"/>
<path d="M0 0 C17.16 0 34.32 0 52 0 C52 0.99 52 1.98 52 3 C55.96 3 59.92 3 64 3 C64 3.33 64 3.66 64 4 C42.88 4 21.76 4 0 4 C-0.33 3.34 -0.66 2.68 -1 2 C-0.67 1.34 -0.34 0.68 0 0 Z " fill="#7677E0" transform="translate(100,14)"/>
<path d="M0 0 C3.34717831 0.1512849 6.67153703 0.4046662 10.00976562 0.68359375 C13.58563849 0.95186601 16.56736293 1.04178287 20 0 C26.01480765 -0.43322735 31.34056231 -0.12228913 37 2 C37.66 2.66 38.32 3.32 39 4 C36.08274166 4.97241945 34.11196561 5.15167819 31.06958008 5.20532227 C30.06876907 5.22526749 29.06795807 5.24521271 28.03681946 5.26576233 C26.95861435 5.28247482 25.88040924 5.29918732 24.76953125 5.31640625 C23.66397385 5.33718735 22.55841644 5.35796844 21.4193573 5.37937927 C17.8838021 5.44482332 14.34817194 5.50373603 10.8125 5.5625 C8.41730992 5.6056901 6.02212745 5.64930454 3.62695312 5.69335938 C-2.24861842 5.80049948 -8.12426472 5.90227557 -14 6 C-13.67 5.01 -13.34 4.02 -13 3 C-12.14535156 2.86722656 -11.29070312 2.73445313 -10.41015625 2.59765625 C-9.30542969 2.42105469 -8.20070313 2.24445313 -7.0625 2.0625 C-5.96035156 1.88847656 -4.85820313 1.71445313 -3.72265625 1.53515625 C-1.09573071 1.28154864 -1.09573071 1.28154864 0 0 Z " fill="#707FDB" transform="translate(91,77)"/>
<path d="M0 0 C0.33 0.99 0.66 1.98 1 3 C1.66 3 2.32 3 3 3 C3 3.66 3 4.32 3 5 C3.99 5 4.98 5 6 5 C6 5.99 6 6.98 6 8 C7.051875 7.9071875 7.051875 7.9071875 8.125 7.8125 C11.65260212 8.04256101 13.93984351 9.29200568 17 11 C17 11.66 17 12.32 17 13 C18.65 12.67 20.3 12.34 22 12 C22 12.99 22 13.98 22 15 C22.680625 14.835 23.36125 14.67 24.0625 14.5 C28.06236191 13.81917244 32.28416227 13.14208113 36 15 C36 15.66 36 16.32 36 17 C39.63 16.67 43.26 16.34 47 16 C46.01 16.33 45.02 16.66 44 17 C43.34 18.32 42.68 19.64 42 21 C38.37 21 34.74 21 31 21 C30.505 19.515 30.505 19.515 30 18 C29.12988281 18.05220703 29.12988281 18.05220703 28.2421875 18.10546875 C22.990866 18.28744524 19.60488781 17.83377711 15 15 C15 14.34 15 13.68 15 13 C13.35 13 11.7 13 10 13 C10 12.34 10 11.68 10 11 C8.68 11 7.36 11 6 11 C4.25 9.625 4.25 9.625 3 8 C3 7.34 3 6.68 3 6 C2.01 6 1.02 6 0 6 C0 5.01 0 4.02 0 3 C-0.99 3 -1.98 3 -3 3 C-3 2.34 -3 1.68 -3 1 C-2.01 0.67 -1.02 0.34 0 0 Z " fill="#5C86CC" transform="translate(56,183)"/>
<path d="M0 0 C2.45898655 -0.08076963 4.91533742 -0.14037143 7.375 -0.1875 C8.07367188 -0.21263672 8.77234375 -0.23777344 9.4921875 -0.26367188 C11.5234375 -0.29296875 11.5234375 -0.29296875 15 0 C17.08382862 3.12574293 17.25889959 3.90452555 17.31884766 7.47143555 C17.33871735 8.37214279 17.35858704 9.27285004 17.37905884 10.20085144 C17.39061005 11.16968765 17.40216125 12.13852386 17.4140625 13.13671875 C17.43342865 14.13129593 17.4527948 15.12587311 17.4727478 16.15058899 C17.53256159 19.3294719 17.57893639 22.50839098 17.625 25.6875 C17.6631781 27.84181273 17.70222973 29.99611017 17.7421875 32.15039062 C17.83826451 37.43345809 17.92330674 42.71661753 18 48 C20.64 48 23.28 48 26 48 C26 33.15 26 18.3 26 3 C26.33 3 26.66 3 27 3 C27 18.51 27 34.02 27 50 C23.04 50 19.08 50 15 50 C14.67 33.83 14.34 17.66 14 1 C9.38 1 4.76 1 0 1 C0 0.67 0 0.34 0 0 Z " fill="#070E35" transform="translate(83,92)"/>
<path d="M0 0 C0.99 0.495 0.99 0.495 2 1 C2.37890625 3.58203125 2.37890625 3.58203125 2.5625 6.8125 C2.78984159 11.03877055 2.78984159 11.03877055 3.5546875 15.18359375 C4.22374805 17.91265653 3.55530086 20.28519578 3 23 C3.66 23 4.32 23 5 23 C5.12375 23.639375 5.2475 24.27875 5.375 24.9375 C5.58125 25.618125 5.7875 26.29875 6 27 C6.66 27.33 7.32 27.66 8 28 C8.625 30.5625 8.625 30.5625 9 33 C9.66 33 10.32 33 11 33 C11.67408308 34.26691507 12.33900497 35.53870749 13 36.8125 C13.556875 37.87404297 13.556875 37.87404297 14.125 38.95703125 C15 41 15 41 15 44 C15.66 44 16.32 44 17 44 C17 45.98 17 47.96 17 50 C15.515 49.505 15.515 49.505 14 49 C14 47.68 14 46.36 14 45 C13.01 45 12.02 45 11 45 C11 44.01 11 43.02 11 42 C10.34 42 9.68 42 9 42 C9 41.34 9 40.68 9 40 C8.01 39.67 7.02 39.34 6 39 C6 37.68 6 36.36 6 35 C5.34 35 4.68 35 4 35 C4 34.01 4 33.02 4 32 C3.34 32 2.68 32 2 32 C1.34 29.69 0.68 27.38 0 25 C0.33 24.67 0.66 24.34 1 24 C1.23287008 22.31816052 1.41264166 20.6287584 1.5625 18.9375 C1.64628906 18.01839844 1.73007812 17.09929687 1.81640625 16.15234375 C1.87699219 15.44207031 1.93757813 14.73179687 2 14 C1.34 14 0.68 14 0 14 C0 9.38 0 4.76 0 0 Z " fill="#6C7EDF" transform="translate(35,134)"/>
<path d="M0 0 C0.66 0 1.32 0 2 0 C3.29004296 2.58008592 3.20410224 4.55741574 3.25 7.4375 C3.27578125 8.40558594 3.3015625 9.37367187 3.328125 10.37109375 C3 13 3 13 1.78491211 14.63232422 C-0.5313785 16.40716487 -1.98728747 16.4238572 -4.88671875 16.51171875 C-6.2934082 16.56489258 -6.2934082 16.56489258 -7.72851562 16.61914062 C-8.70498047 16.64169922 -9.68144531 16.66425781 -10.6875 16.6875 C-12.16959961 16.73874023 -12.16959961 16.73874023 -13.68164062 16.79101562 C-16.12098053 16.87350538 -18.55996063 16.94265068 -21 17 C-21.33 19.31 -21.66 21.62 -22 24 C-20.39592672 24.02708567 -18.7917215 24.04643483 -17.1875 24.0625 C-15.84751953 24.07990234 -15.84751953 24.07990234 -14.48046875 24.09765625 C-11.86586209 24.11009967 -11.86586209 24.11009967 -9 23 C-5.8125 23.9375 -5.8125 23.9375 -3 25 C-3 25.66 -3 26.32 -3 27 C-10.26 27 -17.52 27 -25 27 C-25 22.71 -25 18.42 -25 14 C-16.75 14 -8.5 14 0 14 C0 9.38 0 4.76 0 0 Z " fill="#5E8ADB" transform="translate(175,82)"/>
<path d="M0 0 C3 1 3 1 4.1875 2.875 C5 5 5 5 5 8 C5.99 8.33 6.98 8.66 8 9 C8 10.32 8 11.64 8 13 C8.66 13 9.32 13 10 13 C10.309375 13.969375 10.61875 14.93875 10.9375 15.9375 C11.69523342 18.84065792 11.69523342 18.84065792 13 20 C13.04080783 21.99958364 13.04254356 24.00045254 13 26 C13.66 26 14.32 26 15 26 C15 30.62 15 35.24 15 40 C14.34 40 13.68 40 13 40 C13 43.63 13 47.26 13 51 C12.67 51 12.34 51 12 51 C12 43.74 12 36.48 12 29 C11.01 28.67 10.02 28.34 9 28 C9.33 25.69 9.66 23.38 10 21 C9.01 21 8.02 21 7 21 C7 18.69 7 16.38 7 14 C6.01 14 5.02 14 4 14 C4 13.34 4 12.68 4 12 C3.34 12 2.68 12 2 12 C2.33 10.02 2.66 8.04 3 6 C2.01 6 1.02 6 0 6 C0 4.02 0 2.04 0 0 Z " fill="#5C7CCA" transform="translate(206,41)"/>
<path d="M0 0 C0.99 0.495 0.99 0.495 2 1 C2 1.99 2 2.98 2 4 C-0.64 3.67 -3.28 3.34 -6 3 C-6 3.99 -6 4.98 -6 6 C-8.31 6 -10.62 6 -13 6 C-13.33 6.99 -13.66 7.98 -14 9 C-15.32 8.67 -16.64 8.34 -18 8 C-17.34 8 -16.68 8 -16 8 C-16 7.34 -16 6.68 -16 6 C-34.15 6 -52.3 6 -71 6 C-71 5.67 -71 5.34 -71 5 C-65.16828903 4.16028699 -59.52414598 3.85267213 -53.63671875 3.8671875 C-52.7640889 3.86623077 -51.89145905 3.86527405 -50.99238586 3.86428833 C-49.15613736 3.8636116 -47.3198864 3.8654303 -45.48364258 3.86962891 C-42.70583586 3.87496478 -39.92819226 3.86967661 -37.15039062 3.86328125 C-28.38956214 3.86033158 -19.70698812 3.88836185 -11 5 C-10.67 4.01 -10.34 3.02 -10 2 C-9.04287109 1.90912109 -9.04287109 1.90912109 -8.06640625 1.81640625 C-7.24011719 1.73261719 -6.41382813 1.64882812 -5.5625 1.5625 C-4.73878906 1.48128906 -3.91507812 1.40007812 -3.06640625 1.31640625 C-1.01337975 1.21069185 -1.01337975 1.21069185 0 0 Z " fill="#4899E6" transform="translate(171,195)"/>
<path d="M0 0 C0.99 0.33 1.98 0.66 3 1 C1 3 1 3 -2.1875 3.875 C-6.23222501 5.06852541 -9.46167735 6.78511974 -13 9 C-13.87140625 9.52980469 -14.7428125 10.05960938 -15.640625 10.60546875 C-24.17633173 15.88781185 -30.73578319 21.46294796 -37.30078125 29.046875 C-38.48530257 30.40839375 -39.72390751 31.72390751 -41 33 C-41.3125 30.25 -41.3125 30.25 -41 27 C-38.6875 24.875 -38.6875 24.875 -36 23 C-35.505 22.319375 -35.01 21.63875 -34.5 20.9375 C-33 19 -33 19 -30.6875 17.6875 C-27.51897532 15.69796125 -25.68650608 13.37184442 -23.4296875 10.42578125 C-22 9 -22 9 -19 9 C-19 8.34 -19 7.68 -19 7 C-17.35 7 -15.7 7 -14 7 C-14 6.01 -14 5.02 -14 4 C-12.02 4 -10.04 4 -8 4 C-8 3.34 -8 2.68 -8 2 C-5.36 2 -2.72 2 0 2 C0 1.34 0 0.68 0 0 Z " fill="#7B6BE0" transform="translate(86,18)"/>
<path d="M0 0 C1.8075742 0.09290154 3.6165029 0.16126798 5.42578125 0.2109375 C6.86727539 0.25347656 6.86727539 0.25347656 8.33789062 0.296875 C10.34029357 0.34946602 12.34293517 0.39357835 14.34570312 0.4296875 C15.30025391 0.460625 16.25480469 0.4915625 17.23828125 0.5234375 C18.10493408 0.54325684 18.97158691 0.56307617 19.86450195 0.58349609 C20.56921631 0.72094238 21.27393066 0.85838867 22 1 C22.66 1.99 23.32 2.98 24 4 C10.47 4 -3.06 4 -17 4 C-15.68232748 1.36465495 -14.61842537 1.26572407 -11.875 0.3125 C-11.12992188 0.04050781 -10.38484375 -0.23148437 -9.6171875 -0.51171875 C-6.19472375 -1.15023811 -3.4464947 -0.53474142 0 0 Z " fill="#6B87DA" transform="translate(151,78)"/>
<path d="M0 0 C0.66 0 1.32 0 2 0 C1.04894874 3.96271359 0.33590087 6.53177455 -2.0625 9.875 C-4.27061204 13.43647104 -4.4938649 15.79515648 -4.796875 19.87890625 C-5.05336645 22.55726886 -5.68050685 24.65423439 -7 27 C-7.99 27.33 -8.98 27.66 -10 28 C-10.66 28.66 -11.32 29.32 -12 30 C-12.08075665 27.70890403 -12.13907731 25.41700733 -12.1875 23.125 C-12.22230469 21.84882812 -12.25710937 20.57265625 -12.29296875 19.2578125 C-12.19628906 18.18273437 -12.09960938 17.10765625 -12 16 C-9 14 -9 14 -6 14 C-6 11.69 -6 9.38 -6 7 C-5.38125 6.95875 -4.7625 6.9175 -4.125 6.875 C-3.42375 6.58625 -2.7225 6.2975 -2 6 C-0.6954344 3.00384054 -0.6954344 3.00384054 0 0 Z " fill="#786CD1" transform="translate(43,51)"/>
<path d="M0 0 C5.28 0 10.56 0 16 0 C15.67 0.66 15.34 1.32 15 2 C12.41682273 2.39465208 9.85811719 2.50806152 7.25 2.65625 C6.5075 2.7696875 5.765 2.883125 5 3 C3.86203769 5.27592463 3.72965157 6.97383275 3.5 9.5 C3.11111111 13.77777778 3.11111111 13.77777778 2 16 C1.84479443 18.32273159 1.74980833 20.64959313 1.68359375 22.9765625 C1.6524221 24.00443375 1.6524221 24.00443375 1.62062073 25.05307007 C1.55519815 27.24361069 1.49627446 29.43427189 1.4375 31.625 C1.39430782 33.1093875 1.3506933 34.59376278 1.30664062 36.078125 C1.19952447 39.71862084 1.09823638 43.35925251 1 47 C0.34 46.67 -0.32 46.34 -1 46 C-0.67 30.82 -0.34 15.64 0 0 Z " fill="#6884D9" transform="translate(113,96)"/>
<path d="M0 0 C0 1.65 0 3.3 0 5 C-1.65 5 -3.3 5 -5 5 C-5 5.66 -5 6.32 -5 7 C-5.99 7 -6.98 7 -8 7 C-8.33 7.99 -8.66 8.98 -9 10 C-10.98 10 -12.96 10 -15 10 C-15 10.66 -15 11.32 -15 12 C-17.64 12 -20.28 12 -23 12 C-23 12.66 -23 13.32 -23 14 C-25.95664519 15.4783226 -28.74229737 15.06032783 -32 15 C-31.67 14.01 -31.34 13.02 -31 12 C-28.69 12 -26.38 12 -24 12 C-24 11.01 -24 10.02 -24 9 C-21.36 9.33 -18.72 9.66 -16 10 C-16 9.01 -16 8.02 -16 7 C-12.27034861 4.96564469 -10.33094958 4 -6 4 C-6 3.34 -6 2.68 -6 2 C-1.125 0 -1.125 0 0 0 Z " fill="#529DD3" transform="translate(189,189)"/>
<path d="M0 0 C0.33 0 0.66 0 1 0 C1.33 4.62 1.66 9.24 2 14 C9.59 14.33 17.18 14.66 25 15 C25 18.63 25 22.26 25 26 C23.42347656 26.06058594 21.84695312 26.12117188 20.22265625 26.18359375 C18.16926057 26.26797987 16.11587569 26.35262883 14.0625 26.4375 C13.02158203 26.47681641 11.98066406 26.51613281 10.90820312 26.55664062 C9.91884766 26.59853516 8.92949219 26.64042969 7.91015625 26.68359375 C6.99371338 26.72025146 6.07727051 26.75690918 5.13305664 26.79467773 C3.0179272 26.77003864 3.0179272 26.77003864 2 28 C1.84379445 29.41327947 1.74943827 30.8335459 1.68359375 32.25390625 C1.64169922 33.10791016 1.59980469 33.96191406 1.55664062 34.84179688 C1.51732422 35.73962891 1.47800781 36.63746094 1.4375 37.5625 C1.39431641 38.46419922 1.35113281 39.36589844 1.30664062 40.29492188 C1.20021858 42.52978485 1.09820012 44.76476308 1 47 C0.67 47 0.34 47 0 47 C0 39.74 0 32.48 0 25 C7.59 24.67 15.18 24.34 23 24 C23.33 21.36 23.66 18.72 24 16 C16.08 16 8.16 16 0 16 C0 10.72 0 5.44 0 0 Z " fill="#1B2E55" transform="translate(147,95)"/>
<path d="M0 0 C5.28 0 10.56 0 16 0 C16 1.32 16 2.64 16 4 C10.97874074 4.77916092 7.02296004 5.13016601 2 4 C2 4.66 2 5.32 2 6 C-0.64 6 -3.28 6 -6 6 C-6.33 6.66 -6.66 7.32 -7 8 C-7 6.35 -7 4.7 -7 3 C-3.535 2.505 -3.535 2.505 0 2 C0 1.34 0 0.68 0 0 Z " fill="#746AD9" transform="translate(84,14)"/>
<path d="M0 0 C0 0.66 0 1.32 0 2 C3.63 1.67 7.26 1.34 11 1 C10.01 1.33 9.02 1.66 8 2 C7.34 3.32 6.68 4.64 6 6 C2.37 6 -1.26 6 -5 6 C-5.33 5.01 -5.66 4.02 -6 3 C-7.175625 3.0928125 -7.175625 3.0928125 -8.375 3.1875 C-9.24125 3.125625 -10.1075 3.06375 -11 3 C-11.66 2.01 -12.32 1.02 -13 0 C-8.85529486 -1.32630565 -3.96769422 -1.98384711 0 0 Z " fill="#5A90DD" transform="translate(92,198)"/>
<path d="M0 0 C0.66 0 1.32 0 2 0 C2 6.6 2 13.2 2 20 C-1.63 20 -5.26 20 -9 20 C-9 17.36 -9 14.72 -9 12 C-8.4225 12.495 -7.845 12.99 -7.25 13.5 C-4.89599371 15.36980013 -4.89599371 15.36980013 -1 15 C-0.67 10.05 -0.34 5.1 0 0 Z " fill="#010620" transform="translate(145,122)"/>
<path d="M0 0 C6.93 0 13.86 0 21 0 C21 0.33 21 0.66 21 1 C19.19402344 1.07347656 19.19402344 1.07347656 17.3515625 1.1484375 C15.77601802 1.22346343 14.20049834 1.29901133 12.625 1.375 C11.8309375 1.4059375 11.036875 1.436875 10.21875 1.46875 C5.63332625 1.51816421 5.63332625 1.51816421 2 4 C1.74152493 7.39340843 1.6334333 10.74524199 1.609375 14.14648438 C1.43136958 19.54103748 1.43136958 19.54103748 -0.83203125 21.94921875 C-4.50618649 23.73002553 -8.01100006 24.607535 -12.0078125 23.38671875 C-13.70402737 22.66222211 -15.35702353 21.8382533 -17 21 C-17 20.67 -17 20.34 -17 20 C-11.72 19.67 -6.44 19.34 -1 19 C-0.67 12.73 -0.34 6.46 0 0 Z " fill="#5D8ED1" transform="translate(150,123)"/>
<path d="M0 0 C0.33 0.66 0.66 1.32 1 2 C1.66 2 2.32 2 3 2 C4.28317892 5.84953676 4.06643637 8.94738135 4 13 C4.66 13 5.32 13 6 13 C6 16.3 6 19.6 6 23 C5.01 23.33 4.02 23.66 3 24 C3 21.36 3 18.72 3 16 C2.01 15.67 1.02 15.34 0 15 C0 10.05 0 5.1 0 0 Z " fill="#6B78CA" transform="translate(31,135)"/>
<path d="M0 0 C0.99 0.33 1.98 0.66 3 1 C3 2.65 3 4.3 3 6 C3.66 6 4.32 6 5 6 C5 10.62 5 15.24 5 20 C4.34 20 3.68 20 3 20 C3 23.63 3 27.26 3 31 C2.67 31 2.34 31 2 31 C2 23.74 2 16.48 2 9 C1.01 8.67 0.02 8.34 -1 8 C-0.67 5.36 -0.34 2.72 0 0 Z " fill="#4C7DC7" transform="translate(216,61)"/>
<path d="M0 0 C11.88 0 23.76 0 36 0 C36 0.66 36 1.32 36 2 C31.82116978 3.03685261 28.02366716 3.0379136 23.73046875 2.87890625 C23.04946609 2.85529526 22.36846344 2.83168427 21.66682434 2.80735779 C19.50681088 2.73121614 17.34720172 2.64698181 15.1875 2.5625 C13.71681619 2.50922961 12.24611307 2.45648961 10.77539062 2.40429688 C7.18334976 2.27566911 3.59162595 2.13978528 0 2 C0 1.34 0 0.68 0 0 Z " fill="#000928" transform="translate(136,84)"/>
<path d="M0 0 C2.99693138 0.99897713 4.02709413 1.65130253 6 4 C6 4.66 6 5.32 6 6 C6.639375 6.12375 7.27875 6.2475 7.9375 6.375 C8.618125 6.58125 9.29875 6.7875 10 7 C10.33 7.66 10.66 8.32 11 9 C11.66 9 12.32 9 13 9 C13 9.99 13 10.98 13 12 C14.32 12 15.64 12 17 12 C17 12.66 17 13.32 17 14 C18.32 14 19.64 14 21 14 C21 14.66 21 15.32 21 16 C21.66 16 22.32 16 23 16 C22.67 16.66 22.34 17.32 22 18 C18.7 17.01 15.4 16.02 12 15 C12 14.01 12 13.02 12 12 C11.01 12 10.02 12 9 12 C9 11.34 9 10.68 9 10 C8.34 10 7.68 10 7 10 C6.67 9.34 6.34 8.68 6 8 C4.68 8.33 3.36 8.66 2 9 C2 6.69 2 4.38 2 2 C1.34 2 0.68 2 0 2 C0 1.34 0 0.68 0 0 Z " fill="#6489E0" transform="translate(50,176)"/>
<path d="M0 0 C0.33 0 0.66 0 1 0 C1.33 13.86 1.66 27.72 2 42 C3.65 42 5.3 42 7 42 C7.33 41.01 7.66 40.02 8 39 C8.33 39 8.66 39 9 39 C9 40.98 9 42.96 9 45 C6.36 45 3.72 45 1 45 C0.08138216 42.24414648 -0.12204322 40.6403931 -0.11352539 37.80395508 C-0.11344986 36.96331009 -0.11337433 36.1226651 -0.11329651 35.25654602 C-0.10813522 34.35333115 -0.10297394 33.45011627 -0.09765625 32.51953125 C-0.0962413 31.59154221 -0.09482635 30.66355316 -0.09336853 29.70744324 C-0.08776937 26.74242942 -0.07521704 23.77749101 -0.0625 20.8125 C-0.05748489 18.80273547 -0.052922 16.79296975 -0.04882812 14.78320312 C-0.03780021 9.85543968 -0.02053617 4.92773263 0 0 Z " fill="#000318" transform="translate(100,95)"/>
<path d="M0 0 C0.99 0 1.98 0 3 0 C3 0.99 3 1.98 3 3 C2.34 3 1.68 3 1 3 C1.061875 3.763125 1.12375 4.52625 1.1875 5.3125 C1 8 1 8 -0.375 9.8125 C-2 11 -2 11 -4 11 C-4 11.66 -4 12.32 -4 13 C-5.98 13.66 -7.96 14.32 -10 15 C-10 14.34 -10 13.68 -10 13 C-9.34 13 -8.68 13 -8 13 C-7.67 11.35 -7.34 9.7 -7 8 C-6.34 8 -5.68 8 -5 8 C-5 7.01 -5 6.02 -5 5 C-4.34 5 -3.68 5 -3 5 C-2.67 4.01 -2.34 3.02 -2 2 C-1.34 2 -0.68 2 0 2 C0 1.34 0 0.68 0 0 Z " fill="#665AB5" transform="translate(49,34)"/>
<path d="M0 0 C15.18 0 30.36 0 46 0 C46 0.33 46 0.66 46 1 C31.48 1.33 16.96 1.66 2 2 C2 3.65 2 5.3 2 7 C1.34 7 0.68 7 0 7 C0 4.69 0 2.38 0 0 Z " fill="#01031E" transform="translate(81,85)"/>
<path d="M0 0 C0.99 0 1.98 0 3 0 C3 1.65 3 3.3 3 5 C2.34 5 1.68 5 1 5 C1 5.99 1 6.98 1 8 C0.01 8 -0.98 8 -2 8 C-2.12375 8.78375 -2.2475 9.5675 -2.375 10.375 C-3 13 -3 13 -5 15 C-5 14.01 -5 13.02 -5 12 C-5.66 12 -6.32 12 -7 12 C-7 11.34 -7 10.68 -7 10 C-6.34 10 -5.68 10 -5 10 C-4.7834375 9.071875 -4.7834375 9.071875 -4.5625 8.125 C-4 6 -4 6 -3 4 C-2.01 3.67 -1.02 3.34 0 3 C0 2.01 0 1.02 0 0 Z " fill="#519ACB" transform="translate(208,166)"/>
<path d="M0 0 C0.66 0 1.32 0 2 0 C1.04894874 3.96271359 0.33590087 6.53177455 -2.0625 9.875 C-4.28784441 13.46426518 -4.54365711 15.91039918 -4.7265625 20.046875 C-5 22 -5 22 -7 24 C-6.67 18.39 -6.34 12.78 -6 7 C-4.68 6.67 -3.36 6.34 -2 6 C-0.6954344 3.00384054 -0.6954344 3.00384054 0 0 Z " fill="#7B6BE1" transform="translate(43,51)"/>
<path d="M0 0 C8.25 0 16.5 0 25 0 C25 0.33 25 0.66 25 1 C24.00818726 1.03758423 24.00818726 1.03758423 22.99633789 1.07592773 C20.01817695 1.19153102 17.0403608 1.31441754 14.0625 1.4375 C12.50112305 1.49647461 12.50112305 1.49647461 10.90820312 1.55664062 C9.42416992 1.61948242 9.42416992 1.61948242 7.91015625 1.68359375 C6.99371338 1.72025146 6.07727051 1.75690918 5.13305664 1.79467773 C3.0179272 1.77003864 3.0179272 1.77003864 2 3 C1.84379445 4.41327947 1.74943827 5.8335459 1.68359375 7.25390625 C1.64169922 8.10791016 1.59980469 8.96191406 1.55664062 9.84179688 C1.51732422 10.73962891 1.47800781 11.63746094 1.4375 12.5625 C1.39431641 13.46419922 1.35113281 14.36589844 1.30664062 15.29492188 C1.20021858 17.52978485 1.09820012 19.76476308 1 22 C0.67 22 0.34 22 0 22 C0 14.74 0 7.48 0 0 Z " fill="#253D69" transform="translate(147,120)"/>
<path d="M0 0 C2.64 0.33 5.28 0.66 8 1 C7.67 1.66 7.34 2.32 7 3 C6.7724985 4.87056791 6.59037189 6.74685958 6.4375 8.625 C6.31181641 10.12933594 6.31181641 10.12933594 6.18359375 11.6640625 C6.12300781 12.43492188 6.06242188 13.20578125 6 14 C4.68 14.33 3.36 14.66 2 15 C2.33 10.38 2.66 5.76 3 1 C2.01 0.67 1.02 0.34 0 0 Z " fill="#5E74C3" transform="translate(127,81)"/>
<path d="M0 0 C0.99 0.33 1.98 0.66 3 1 C3 1.66 3 2.32 3 3 C3.99 3 4.98 3 6 3 C8.6875 5.3125 8.6875 5.3125 11 8 C11 8.99 11 9.98 11 11 C10.01 11 9.02 11 8 11 C8 10.34 8 9.68 8 9 C7.071875 8.7834375 7.071875 8.7834375 6.125 8.5625 C4 8 4 8 2 7 C2 6.01 2 5.02 2 4 C1.34 4 0.68 4 0 4 C0 2.68 0 1.36 0 0 Z " fill="#5871C2" transform="translate(193,28)"/>
<path d="M0 0 C6.75 -0.125 6.75 -0.125 9 1 C9 1.66 9 2.32 9 3 C14.445 2.505 14.445 2.505 20 2 C19.01 2.33 18.02 2.66 17 3 C15.79117904 5.00016466 15.79117904 5.00016466 15 7 C13.35 7 11.7 7 10 7 C10 6.34 10 5.68 10 5 C8.68 4.67 7.36 4.34 6 4 C6 3.01 6 2.02 6 1 C4.02 1 2.04 1 0 1 C0 0.67 0 0.34 0 0 Z " fill="#5B96E5" transform="translate(83,197)"/>
<path d="M0 0 C0.33 0.99 0.66 1.98 1 3 C1.66 3 2.32 3 3 3 C3 3.66 3 4.32 3 5 C3.99 5 4.98 5 6 5 C6 5.99 6 6.98 6 8 C7.65 8 9.3 8 11 8 C11 9.65 11 11.3 11 13 C10.67 12.34 10.34 11.68 10 11 C8.68 11 7.36 11 6 11 C4.25 9.625 4.25 9.625 3 8 C3 7.34 3 6.68 3 6 C2.01 6 1.02 6 0 6 C0 5.01 0 4.02 0 3 C-0.99 3 -1.98 3 -3 3 C-3 2.34 -3 1.68 -3 1 C-2.01 0.67 -1.02 0.34 0 0 Z " fill="#536CBF" transform="translate(56,183)"/>
<path d="M0 0 C0.66 0 1.32 0 2 0 C2.09765625 6.15234375 2.09765625 6.15234375 2 8 C1 9 1 9 -1.04125977 9.11352539 C-1.91580811 9.10828857 -2.79035645 9.10305176 -3.69140625 9.09765625 C-4.63564453 9.09443359 -5.57988281 9.09121094 -6.55273438 9.08789062 C-7.54595703 9.07951172 -8.53917969 9.07113281 -9.5625 9.0625 C-10.55958984 9.05798828 -11.55667969 9.05347656 -12.58398438 9.04882812 C-15.05604849 9.03700007 -17.52799518 9.02051849 -20 9 C-20 8.67 -20 8.34 -20 8 C-13.73 7.34 -7.46 6.68 -1 6 C-0.67 4.02 -0.34 2.04 0 0 Z " fill="#071333" transform="translate(169,111)"/>
<path d="M0 0 C0.66 0.33 1.32 0.66 2 1 C2 1.99 2 2.98 2 4 C-0.64 3.67 -3.28 3.34 -6 3 C-6 3.99 -6 4.98 -6 6 C-8.31 6 -10.62 6 -13 6 C-13.33 6.99 -13.66 7.98 -14 9 C-14.33 8.01 -14.66 7.02 -15 6 C-14.360625 5.896875 -13.72125 5.79375 -13.0625 5.6875 C-12.381875 5.460625 -11.70125 5.23375 -11 5 C-10.67 4.01 -10.34 3.02 -10 2 C-9.04287109 1.90912109 -9.04287109 1.90912109 -8.06640625 1.81640625 C-6.82697266 1.69072266 -6.82697266 1.69072266 -5.5625 1.5625 C-4.73878906 1.48128906 -3.91507813 1.40007812 -3.06640625 1.31640625 C-1.01337975 1.21069185 -1.01337975 1.21069185 0 0 Z " fill="#54A8E4" transform="translate(171,195)"/>
<path d="M0 0 C1.32 0.33 2.64 0.66 4 1 C4 1.66 4 2.32 4 3 C4.99 3 5.98 3 7 3 C7 4.65 7 6.3 7 8 C7.66 8 8.32 8 9 8 C9 8.99 9 9.98 9 11 C8.34 11 7.68 11 7 11 C6.67 11.66 6.34 12.32 6 13 C6 11.68 6 10.36 6 9 C5.34 9 4.68 9 4 9 C4 8.01 4 7.02 4 6 C3.34 6 2.68 6 2 6 C1.34 4.02 0.68 2.04 0 0 Z " fill="#5667B9" transform="translate(35,160)"/>
<path d="M0 0 C0.66 0.66 1.32 1.32 2 2 C0.7934375 2.4021875 0.7934375 2.4021875 -0.4375 2.8125 C-1.283125 3.204375 -2.12875 3.59625 -3 4 C-3.33 4.99 -3.66 5.98 -4 7 C-6.92079805 9.07530387 -8.37546731 10 -12 10 C-12 9.34 -12 8.68 -12 8 C-11.34 8 -10.68 8 -10 8 C-9.67 7.01 -9.34 6.02 -9 5 C-8.01 5 -7.02 5 -6 5 C-4.97971135 3.68212715 -3.98028616 2.34789347 -3 1 C-2.01 0.67 -1.02 0.34 0 0 Z " fill="#4EA7E5" transform="translate(185,186)"/>
<path d="M0 0 C0.33 0 0.66 0 1 0 C1 2.31 1 4.62 1 7 C1.99 7 2.98 7 4 7 C3.29445932 10.66881155 1.72264494 13.70450534 0 17 C-0.66 16.67 -1.32 16.34 -2 16 C-1.34 10.72 -0.68 5.44 0 0 Z " fill="#5D95EB" transform="translate(212,55)"/>
<path d="M0 0 C1.98 0 3.96 0 6 0 C6 0.99 6 1.98 6 3 C4.35 3 2.7 3 1 3 C1 3.66 1 4.32 1 5 C-1.64 5 -4.28 5 -7 5 C-7 4.34 -7 3.68 -7 3 C-3.535 2.505 -3.535 2.505 0 2 C0 1.34 0 0.68 0 0 Z " fill="#6863B7" transform="translate(84,14)"/>
<path d="M0 0 C0.99 0.33 1.98 0.66 3 1 C3 6.61 3 12.22 3 18 C2.67 18 2.34 18 2 18 C2 15.03 2 12.06 2 9 C1.01 8.67 0.02 8.34 -1 8 C-0.67 5.36 -0.34 2.72 0 0 Z " fill="#5583D3" transform="translate(216,61)"/>
<path d="M0 0 C0 1.32 0 2.64 0 4 C-0.66 4 -1.32 4 -2 4 C-2.66 5.98 -3.32 7.96 -4 10 C-4.66 10 -5.32 10 -6 10 C-6.29296875 3.9453125 -6.29296875 3.9453125 -6 2 C-3 0 -3 0 0 0 Z " fill="#6E5FC0" transform="translate(45,47)"/>
<path d="M0 0 C1.32 0 2.64 0 4 0 C3.67 1.65 3.34 3.3 3 5 C1.35 5.33 -0.3 5.66 -2 6 C-2.33 6.99 -2.66 7.98 -3 9 C-3.66 9 -4.32 9 -5 9 C-4.40138258 6.64828869 -3.73075648 4.3140622 -3 2 C-2.34 1.67 -1.68 1.34 -1 1 C-0.67 1.99 -0.34 2.98 0 4 C0 2.68 0 1.36 0 0 Z " fill="#4EA7E0" transform="translate(211,161)"/>
<path d="M0 0 C5.28 0.33 10.56 0.66 16 1 C16 1.66 16 2.32 16 3 C10.72 3 5.44 3 0 3 C0 2.01 0 1.02 0 0 Z " fill="#131A43" transform="translate(81,92)"/>
<path d="M0 0 C1.32 0.33 2.64 0.66 4 1 C4 1.66 4 2.32 4 3 C5.65 3 7.3 3 9 3 C9 5.64 9 8.28 9 11 C9.99 11 10.98 11 12 11 C11.67 11.66 11.34 12.32 11 13 C10.01 12.67 9.02 12.34 8 12 C7.9175 11.21625 7.835 10.4325 7.75 9.625 C7.29004732 6.88368661 7.29004732 6.88368661 5.125 5.875 C4.42375 5.58625 3.7225 5.2975 3 5 C1.25 3.5 1.25 3.5 0 2 C0 1.34 0 0.68 0 0 Z " fill="#5D81CF" transform="translate(197,36)"/>
<path d="M0 0 C1.98 0 3.96 0 6 0 C6 0.99 6 1.98 6 3 C4.35 3 2.7 3 1 3 C1 3.66 1 4.32 1 5 C-0.98 5 -2.96 5 -5 5 C-4.67 4.01 -4.34 3.02 -4 2 C-2.68 2 -1.36 2 0 2 C0 1.34 0 0.68 0 0 Z " fill="#625BB9" transform="translate(71,19)"/>
<path d="M0 0 C-0.33 0.99 -0.66 1.98 -1 3 C0.65 3 2.3 3 4 3 C4 3.99 4 4.98 4 6 C3.01 6 2.02 6 1 6 C1 5.34 1 4.68 1 4 C0.01 4.33 -0.98 4.66 -2 5 C-5.1875 3.5625 -5.1875 3.5625 -8 2 C-4.77208445 -0.1519437 -3.71599191 -0.20086443 0 0 Z " fill="#6A7EE5" transform="translate(176,19)"/>
<path d="M0 0 C0.66 0 1.32 0 2 0 C2 4.95 2 9.9 2 15 C1.34 15 0.68 15 0 15 C-1.2063366 9.77254141 -0.75612577 5.23471686 0 0 Z " fill="#02041B" transform="translate(145,95)"/>
<path d="M0 0 C3.63 0 7.26 0 11 0 C10.67 0.99 10.34 1.98 10 3 C6.7 3 3.4 3 0 3 C0 2.01 0 1.02 0 0 Z " fill="#616CD0" transform="translate(152,14)"/>
<path d="M0 0 C0.99 0 1.98 0 3 0 C3 0.99 3 1.98 3 3 C3.66 3 4.32 3 5 3 C5 4.98 5 6.96 5 9 C4.01 8.67 3.02 8.34 2 8 C2 6.68 2 5.36 2 4 C1.01 4 0.02 4 -1 4 C-0.67 2.68 -0.34 1.36 0 0 Z " fill="#516CC8" transform="translate(47,175)"/>
<path d="M0 0 C0.33 0.66 0.66 1.32 1 2 C1.66 2 2.32 2 3 2 C3.66 3.65 4.32 5.3 5 7 C3.35 7.33 1.7 7.66 0 8 C0 7.34 0 6.68 0 6 C-0.66 6 -1.32 6 -2 6 C-2 5.01 -2 4.02 -2 3 C-1.34 3 -0.68 3 0 3 C0 2.01 0 1.02 0 0 Z " fill="#687CC6" transform="translate(44,168)"/>
<path d="M0 0 C4.95 0 9.9 0 15 0 C12.13087012 2.86912988 8.90308825 2.96268558 5 3 C2 2.0625 2 2.0625 0 1 C0 0.67 0 0.34 0 0 Z " fill="#6685D0" transform="translate(97,143)"/>
<path d="M0 0 C0.99 0.33 1.98 0.66 3 1 C3 1.66 3 2.32 3 3 C3.66 3.33 4.32 3.66 5 4 C4.67 4.66 4.34 5.32 4 6 C4.99 6.33 5.98 6.66 7 7 C3.25 10 3.25 10 1 10 C0.67 6.7 0.34 3.4 0 0 Z " fill="#5A8EDA" transform="translate(172,109)"/>
<path d="M0 0 C0.66 0 1.32 0 2 0 C2 3.3 2 6.6 2 10 C1.01 10 0.02 10 -1 10 C-1.02689216 8.52093108 -1.04634621 7.04172517 -1.0625 5.5625 C-1.07410156 4.73878906 -1.08570312 3.91507812 -1.09765625 3.06640625 C-1 1 -1 1 0 0 Z " fill="#6963AC" transform="translate(32,66)"/>
<path d="M0 0 C0.99 0 1.98 0 3 0 C3 3.3 3 6.6 3 10 C2.01 9.67 1.02 9.34 0 9 C0 6.03 0 3.06 0 0 Z " fill="#6271A9" transform="translate(31,141)"/>
<path d="M0 0 C3.3 0 6.6 0 10 0 C9.67 0.99 9.34 1.98 9 3 C6.03 3 3.06 3 0 3 C0 2.01 0 1.02 0 0 Z " fill="#6F66CE" transform="translate(90,14)"/>
<path d="M0 0 C0.66 0 1.32 0 2 0 C0.25 5.75 0.25 5.75 -2 8 C-4.625 8.125 -4.625 8.125 -7 8 C-6.34 7.01 -5.68 6.02 -5 5 C-4.34 5 -3.68 5 -3 5 C-3 4.34 -3 3.68 -3 3 C-2.01 3 -1.02 3 0 3 C0 2.01 0 1.02 0 0 Z " fill="#6254AB" transform="translate(59,26)"/>
<path d="M0 0 C-2.95769397 1.97179598 -4.16417962 2.36929854 -7.5625 2.75 C-8.34753906 2.84796875 -9.13257812 2.9459375 -9.94140625 3.046875 C-12 3 -12 3 -14 1 C-12.4221875 0.7834375 -12.4221875 0.7834375 -10.8125 0.5625 C-8.59299887 0.23503262 -6.37760349 -0.13831033 -4.1875 -0.625 C-2 -1 -2 -1 0 0 Z " fill="#678CE9" transform="translate(112,145)"/>
<path d="M0 0 C6.6 0 13.2 0 20 0 C20 0.33 20 0.66 20 1 C18.80761719 1.04898438 17.61523438 1.09796875 16.38671875 1.1484375 C14.82028932 1.22347604 13.25388421 1.2990234 11.6875 1.375 C10.90181641 1.4059375 10.11613281 1.436875 9.30664062 1.46875 C8.1706543 1.52675781 8.1706543 1.52675781 7.01171875 1.5859375 C6.31522217 1.6173584 5.61872559 1.6487793 4.90112305 1.68115234 C2.67467261 1.92118253 2.67467261 1.92118253 0 4 C0 2.68 0 1.36 0 0 Z " fill="#5A92E3" transform="translate(151,123)"/>
<path d="M0 0 C1.65 0 3.3 0 5 0 C5 0.66 5 1.32 5 2 C5.66 2.33 6.32 2.66 7 3 C6.34 3.66 5.68 4.32 5 5 C4.01 5 3.02 5 2 5 C2 4.34 2 3.68 2 3 C1.34 3 0.68 3 0 3 C0 2.01 0 1.02 0 0 Z " fill="#5E6BC4" transform="translate(186,24)"/>
<path d="M0 0 C2.64 0 5.28 0 8 0 C8 0.66 8 1.32 8 2 C5.04335481 3.4783226 2.25770263 3.06032783 -1 3 C-0.67 2.01 -0.34 1.02 0 0 Z " fill="#5592B9" transform="translate(158,201)"/>
<path d="M0 0 C0.99 0 1.98 0 3 0 C3 0.99 3 1.98 3 3 C2.34 3 1.68 3 1 3 C1 3.66 1 4.32 1 5 C0.01 5 -0.98 5 -2 5 C-2.33 5.66 -2.66 6.32 -3 7 C-3 6.34 -3 5.68 -3 5 C-3.66 4.67 -4.32 4.34 -5 4 C-3.35 3.67 -1.7 3.34 0 3 C0 2.01 0 1.02 0 0 Z " fill="#4D9EC5" transform="translate(198,181)"/>
<path d="M0 0 C2.64 0 5.28 0 8 0 C7.67 0.99 7.34 1.98 7 3 C5.02 3 3.04 3 1 3 C0.67 2.01 0.34 1.02 0 0 Z " fill="#5A84B2" transform="translate(86,201)"/>
<path d="M0 0 C0.99 0.33 1.98 0.66 3 1 C3 2.98 3 4.96 3 7 C2.01 7 1.02 7 0 7 C0 4.69 0 2.38 0 0 Z " fill="#4B9FCB" transform="translate(216,148)"/>
<path d="M0 0 C0.33 2.31 0.66 4.62 1 7 C-0.32 6.67 -1.64 6.34 -3 6 C-3.33 6.99 -3.66 7.98 -4 9 C-4.368 3.48 -4.368 3.48 -2.5625 1.125 C-1 0 -1 0 0 0 Z " fill="#48A4E1" transform="translate(219,142)"/>
<path d="M0 0 C0.99 0.33 1.98 0.66 3 1 C3.33 3.31 3.66 5.62 4 8 C3.67 7.34 3.34 6.68 3 6 C2.01 6 1.02 6 0 6 C0 4.02 0 2.04 0 0 Z " fill="#4A75AA" transform="translate(206,41)"/>
<path d="M0 0 C-0.75 4.75 -0.75 4.75 -3 7 C-3 6.01 -3 5.02 -3 4 C-3.66 4 -4.32 4 -5 4 C-5 3.34 -5 2.68 -5 2 C-2 0 -2 0 0 0 Z " fill="#4094CD" transform="translate(206,174)"/>
<path d="M0 0 C0 1.65 0 3.3 0 5 C-1.65 5 -3.3 5 -5 5 C-5 4.01 -5 3.02 -5 2 C-1.125 0 -1.125 0 0 0 Z " fill="#5194BC" transform="translate(189,189)"/>
<path d="M0 0 C2.64 0 5.28 0 8 0 C6.68 1.32 5.36 2.64 4 4 C3.01 3.67 2.02 3.34 1 3 C0.67 2.01 0.34 1.02 0 0 Z " fill="#5B97EA" transform="translate(136,146)"/>
<path d="M0 0 C0.66 0 1.32 0 2 0 C2 1.65 2 3.3 2 5 C0.35 5.66 -1.3 6.32 -3 7 C-3 6.34 -3 5.68 -3 5 C-2.34 5 -1.68 5 -1 5 C-0.67 3.35 -0.34 1.7 0 0 Z " fill="#3B2F75" transform="translate(42,42)"/>
<path d="M0 0 C1.98 0 3.96 0 6 0 C5.01 1.485 5.01 1.485 4 3 C1.375 3.1875 1.375 3.1875 -1 3 C-0.67 2.01 -0.34 1.02 0 0 Z " fill="#5C8FD2" transform="translate(94,201)"/>
<path d="M0 0 C0.66 0.66 1.32 1.32 2 2 C-1 4 -1 4 -3.1875 3.625 C-3.785625 3.41875 -4.38375 3.2125 -5 3 C-3.35 2.01 -1.7 1.02 0 0 Z " fill="#48ACEF" transform="translate(185,186)"/>
<path d="M0 0 C1.32 0 2.64 0 4 0 C3.67 1.65 3.34 3.3 3 5 C2.01 5 1.02 5 0 5 C0 3.35 0 1.7 0 0 Z " fill="#55A2CC" transform="translate(211,161)"/>
<path d="M0 0 C0.99 0 1.98 0 3 0 C3 1.65 3 3.3 3 5 C2.01 5.33 1.02 5.66 0 6 C0 4.02 0 2.04 0 0 Z " fill="#5E6CC1" transform="translate(34,153)"/>
<path d="M0 0 C2 2 2 2 2.125 5.125 C2.08375 6.07375 2.0425 7.0225 2 8 C1.01 8.495 1.01 8.495 0 9 C-1.10844919 5.67465243 -0.84454356 3.37817425 0 0 Z " fill="#6265AD" transform="translate(30,127)"/>
<path d="M0 0 C0.99 0 1.98 0 3 0 C2.67 2.97 2.34 5.94 2 9 C1.67 9 1.34 9 1 9 C0.67 6.03 0.34 3.06 0 0 Z " fill="#5F5DB6" transform="translate(29,82)"/>
<path d="M0 0 C0.33 0 0.66 0 1 0 C1.309375 0.94875 1.61875 1.8975 1.9375 2.875 C2.87394742 5.86080408 2.87394742 5.86080408 4 8 C2.35 8 0.7 8 -1 8 C-0.67 5.36 -0.34 2.72 0 0 Z " fill="#4671B9" transform="translate(215,54)"/>
<path d="M0 0 C0.66 0 1.32 0 2 0 C2 0.99 2 1.98 2 3 C1.34 3 0.68 3 0 3 C0 3.99 0 4.98 0 6 C-0.99 6 -1.98 6 -3 6 C-3 5.01 -3 4.02 -3 3 C-2.34 3 -1.68 3 -1 3 C-0.67 2.01 -0.34 1.02 0 0 Z " fill="#2F278B" transform="translate(47,36)"/>
<path d="M0 0 C1.32 0.33 2.64 0.66 4 1 C4 1.66 4 2.32 4 3 C4.99 3 5.98 3 7 3 C7 3.99 7 4.98 7 6 C3.75728494 5.4409112 2.06942576 4.5867822 0 2 C0 1.34 0 0.68 0 0 Z " fill="#6488D9" transform="translate(197,36)"/>
<path d="M0 0 C0 0.66 0 1.32 0 2 C-2.64 2 -5.28 2 -8 2 C-8 1.34 -8 0.68 -8 0 C-5.13822943 -1.43088528 -3.06624227 -0.59991697 0 0 Z " fill="#7064C3" transform="translate(85,17)"/>
</svg>
